1 71 -40 4 -40 1 0 0 0 1 0 0 0 1 3020.dat
1 71 40 4 -40 1 0 0 0 1 0 0 0 1 3020.dat
1 71 -40 4 0 1 0 0 0 1 0 0 0 1 3020.dat
1 71 40 4 0 1 0 0 0 1 0 0 0 1 3020.dat
1 71 -40 4 40 1 0 0 0 1 0 0 0 1 3020.dat
1 71 40 4 40 1 0 0 0 1 0 0 0 1 3020.dat
0 STEP
1 15 -40 12 -50 1 0 0 0 1 0 0 0 1 3021.dat
1 15 -40 12 -10 1 0 0 0 1 0 0 0 1 3021.dat
1 15 40 12 10 1 0 0 0 1 0 0 0 1 3021.dat
1 15 40 12 50 1 0 0 0 1 0 0 0 1 3021.dat
0 STEP
1 15 -40 28 -30 1 0 0 0 1 0 0 0 1 3003.dat
1 15 -40 44 -30 1 0 0 0 1 0 0 0 1 3022.dat
1 15 -40 60 -30 1 0 0 0 1 0 0 0 1 3003.dat
1 15 -40 84 -30 1 0 0 0 1 0 0 0 1 3003.dat
